Coordinates
version=1
nRows=21
nColumns=12
inDegrees=yes

Units are S.I. units (second, meters, Newtons, ...)
Angles are in degrees

endheader
time	SC_y	SC_z	SC_x	AC_y	AC_z	AC_x	GH_y	GH_z	GH_yy	EL_x	PS_y
       0.0              -30.01           5.04          75.19          45.21         -18.84          9.966         -68.91          65.62         -163.1          45.47          83.14
   0.01026              -30.01          5.042          75.19          45.21         -18.84          9.967         -68.91          65.62         -163.1          45.47          83.14
   0.02051              -30.02          5.044          75.19          45.21         -18.84          9.968         -68.91          65.61         -163.1          45.48          83.13
   0.03077              -30.02          5.046          75.19          45.21         -18.84           9.97          -68.9          65.61         -163.1          45.48          83.13
   0.04102              -30.02          5.048          75.19          45.21         -18.84          9.971          -68.9           65.6         -163.1          45.49          83.13
   0.05128              -30.03           5.05          75.18          45.21         -18.84          9.973         -68.89           65.6         -163.1           45.5          83.13
   0.06153              -30.03          5.053          75.18          45.21         -18.84          9.974         -68.89           65.6         -163.1          45.51          83.13
   0.07179              -30.04          5.055          75.18          45.21         -18.84          9.976         -68.88          65.59         -163.1          45.52          83.13
   0.08204              -30.04          5.058          75.18          45.22         -18.84          9.978         -68.87          65.59         -163.1          45.52          83.13
    0.0923              -30.05          5.061          75.17          45.22         -18.84           9.98         -68.87          65.58         -163.1          45.53          83.13
    0.1026              -30.05          5.064          75.17          45.22         -18.84          9.982         -68.86          65.57         -163.1          45.54          83.13
    0.1128              -30.06          5.068          75.17          45.22         -18.83          9.985         -68.85          65.57         -163.1          45.56          83.13
    0.1231              -30.07          5.072          75.17          45.22         -18.83          9.987         -68.84          65.56         -163.0          45.57          83.12
    0.1333              -30.08          5.076          75.16          45.22         -18.83           9.99         -68.84          65.55         -163.0          45.58          83.12
    0.1436              -30.08           5.08          75.16          45.22         -18.83          9.993         -68.83          65.54         -163.0           45.6          83.12
    0.1538              -30.09          5.085          75.15          45.22         -18.83          9.996         -68.81          65.53         -163.0          45.61          83.12
    0.1641               -30.1           5.09          75.15          45.22         -18.83           10.0          -68.8          65.52         -163.0          45.63          83.12
    0.1743              -30.11          5.096          75.14          45.23         -18.83           10.0         -68.79          65.51         -163.0          45.65          83.12
    0.1846              -30.13          5.102          75.14          45.23         -18.83          10.01         -68.78           65.5         -163.0          45.67          83.11
    0.1949              -30.14          5.109          75.13          45.23         -18.83          10.01         -68.76          65.49         -162.9          45.69          83.11
    0.2051              -30.15          5.116          75.13          45.23         -18.83          10.02         -68.75          65.47         -162.9          45.71          83.11
